/* XPM */
static char *_11707604466[] = {
/* columns rows colors chars-per-pixel */
"64 56 177 2 ",
"   c None",
".  c #6F0006",
"X  c #710006",
"o  c #7B0606",
"O  c #710608",
"+  c #730909",
"@  c #7B0908",
"#  c #7C170A",
"$  c #771D10",
"%  c #7B2511",
"&  c #7A461F",
"*  c #7B5D25",
"=  c #6D5636",
"-  c #456834",
";  c #557434",
":  c #5D7D36",
">  c #6B672C",
",  c #75672C",
"<  c #6B732B",
"1  c #77702C",
"2  c #7A762D",
"3  c #6C7D36",
"4  c #6B7031",
"5  c #810704",
"6  c #840905",
"7  c #8B0D04",
"8  c #810709",
"9  c #860908",
"0  c #831007",
"q  c #8D1206",
"w  c #891C09",
"e  c #941304",
"r  c #9B1704",
"t  c #9A1A05",
"y  c #941F08",
"u  c #A21C04",
"i  c #AA1E03",
"p  c #B31519",
"a  c #872C0D",
"s  c #9F370C",
"d  c #813414",
"f  c #8D3411",
"g  c #8F3F11",
"h  c #80391A",
"j  c #A22006",
"k  c #AB2906",
"l  c #A02A08",
"z  c #AA2805",
"x  c #B4230C",
"c  c #B52404",
"v  c #A6370B",
"b  c #B4300C",
"n  c #A93A16",
"m  c #C3171B",
"M  c #CB191D",
"N  c #C41B1C",
"B  c #CD241A",
"V  c #D82323",
"C  c #D52A24",
"Z  c #CA3427",
"A  c #D4392A",
"S  c #864919",
"D  c #9C4511",
"F  c #9F4B12",
"G  c #924512",
"H  c #8B591E",
"J  c #9D5013",
"K  c #AE4A0E",
"L  c #A94D13",
"P  c #A55313",
"I  c #AC5612",
"U  c #A55D16",
"Y  c #B25A12",
"T  c #9B6B1D",
"R  c #AB6416",
"E  c #AA6318",
"W  c #AA6D18",
"Q  c #B27B1C",
"!  c #B07219",
"~  c #865C20",
"^  c #B94E28",
"/  c #BA5D2D",
"(  c #B55330",
")  c #876B28",
"_  c #966727",
"`  c #887B29",
"'  c #9E7737",
"]  c #B27730",
"[  c #C74129",
"{  c #CF4226",
"}  c #DE5535",
"|  c #7E8029",
" . c #678031",
".. c #7F8136",
"X. c #748638",
"o. c #6B9038",
"O. c #779B3A",
"+. c #7EAE3F",
"@. c #63B64C",
"#. c #6CB649",
"$. c #64B84D",
"%. c #6BBC4E",
"&. c #74B646",
"*. c #7BB543",
"=. c #72B847",
"-. c #7AB945",
";. c #73C14F",
":. c #7BC550",
">. c #B3851E",
",. c #96942A",
"<. c #9C8C30",
"1. c #8E973D",
"2. c #AA8D23",
"3. c #B68E2E",
"4. c #AC9526",
"5. c #A79927",
"6. c #AF9E26",
"7. c #A59A2B",
"8. c #B79521",
"9. c #B99520",
"0. c #B08C30",
"q. c #B18038",
"w. c #8BAB3B",
"e. c #8CA135",
"r. c #83B43F",
"t. c #8BB63D",
"y. c #8CBA3E",
"u. c #96B639",
"i. c #9EB836",
"p. c #AFA027",
"a. c #A4A22A",
"s. c #BCAD27",
"d. c #B9A729",
"f. c #BFA624",
"g. c #AEB22F",
"h. c #B5B52D",
"j. c #BCBA2C",
"k. c #A5B534",
"l. c #ADB731",
"z. c #ADBF36",
"x. c #A3BC37",
"c. c #C3AE25",
"v. c #C8B526",
"b. c #CCBB27",
"n. c #C5BA29",
"m. c #C7B828",
"M. c #ADC037",
"N. c #A8C33C",
"B. c #AB8448",
"V. c #81B641",
"C. c #83BA41",
"Z. c #A4B445",
"A. c #C3954F",
"S. c #EE954E",
"D. c #DCA956",
"F. c #E6AF59",
"G. c #F3A756",
"H. c #EDBB5D",
"J. c #EEB65B",
"K. c #F5BC5E",
"L. c #F8BD5E",
"P. c #F6B65C",
"I. c #83CA51",
"U. c #8DCF52",
"Y. c #99CD54",
"T. c #8DD052",
"R. c #96D653",
"E. c #A1C743",
"W. c #A3CB55",
"Q. c #ACD455",
"!. c #C0CA58",
"~. c #DDC65A",
"^. c #C9D459",
"/. c #D8D35B",
"(. c #E7C15D",
"). c #FAC05F",
"_. c #FBC160",
/* pixels */
"                                                                                                                                ",
"                                                                                                                                ",
"                                                                                                                                ",
"                                                                                                                                ",
"                                                                                                                                ",
"                                                                                                                                ",
"                                                                                                                                ",
"                                                                                                                                ",
"                                                                                                                                ",
"                                                                                                                                ",
"                                                                                                                                ",
"                                                                                                                                ",
"                                                                                                                                ",
"                                                                                                                                ",
"                                                                                                                                ",
"                                                                                                                                ",
"                                                                                                                                ",
"                                                                                                                                ",
"                                                                                                                                ",
"                                                                                                                                ",
"                                                                                                                                ",
"                                                                                    I.R.R.Q.^./.                                ",
"                                                              &.#.#.@.@.@.@.%.%.;.:.I.T.!.(.K.K.H.K.                            ",
"                                                          *.&.=.#.#.@.@.@.$.%.%.;.:.I.Y.H.L.L.F.= A._.                          ",
"                                                6     t.C.-.&.&.=.#.#.@.@.$.$.%.;.:.I.W.H.K.L.J.B.D.S.                          ",
"                                              7 6 ) y.C.r.*.*.&.#.#.@.@.@.$.%.%.;.:.I.Y.(.L.K.K._.G.A p                         ",
"                                              f 7 H t.r.*.*.&.=.#.#.@.@.$.$.$.%.;.:.I.T.Q.~.H.).P.} M M                         ",
"                                    u r L l.h.D 7 w S e.C.*.&.&.#.#.@.@.%.C.C.x.z.M.M.N.N.E.Z.q.^ N m m M     X     X X         ",
"                                    j r v s.c.F 5 5 o f H 2 *.&.=.-.y.k.j.n.b.b.j.l.u.t.+.2 d 0 o 9 9 8       .     X .         ",
"                                    R t t >.n.R 6 5 o o . O T g.7.2.v.b.v.n.n.j.k.u.t.+.H q 7 9 5 @ o X     X X   . X X         ",
"                              z I s.9.l r s f.8.w 5 @ o X X + a # + G G T j.h.l.k.u.t.*.H q 7 6 5 o o X   X X     X X           ",
"                            6.K k Q s.! t e P c.W 0 o o O . X X X X . . S a.a.,.` < <  .o.1 d 0 5 o o X X . X   . X X           ",
"                        5.4.6.2.v k ! d.P e e U c.U o O X . . X X X X X                   ;  .> & % + + X X X X X X             ",
"                    -.*.w.Y Y 7.<.n j L I e 7 q F F 8 o O X X . X X . X                         ; 3 1 & $ O X X X               ",
"                t.V.-.=.#._ c v n x u r t e e 9 6 5 o o + + O . . X X X                                                         ",
"            i.u.t.w.1.' ( Z B x z j u t e y f S ~ , , 4 3 X...) h + .                                                           ",
"      V { 3.0.] / [ C V V V V b k u u s T ` 4 O.; -                                                                             ",
"  V V V V C C V V V V V V       Q Y E 4.                                                                                        ",
"  V V V       V V V V                                                                                                           ",
"              V V                                                                                                               ",
"                                                                                                                                ",
"                                                                                                                                ",
"                                                                                                                                ",
"                                                                                                                                ",
"                                                                                                                                ",
"                                                                                                                                ",
"                                                                                                                                ",
"                                                                                                                                ",
"                                                                                                                                ",
"                                                                                                                                ",
"                                                                                                                                ",
"                                                                                                                                ",
"                                                                                                                                ",
"                                                                                                                                ",
"                                                                                                                                ",
"                                                                                                                                "
};
