/* XPM */
static char *_11707604467[] = {
/* columns rows colors chars-per-pixel */
"64 56 169 2 ",
"   c None",
".  c #2C1E1E",
"X  c #211F21",
"o  c #441B18",
"O  c #501A15",
"+  c #6F0006",
"@  c #6F0608",
"#  c #670D0B",
"$  c #6D0909",
"%  c #710106",
"&  c #7A0506",
"*  c #7E0805",
"=  c #67120D",
"-  c #751009",
";  c #7D150A",
":  c #5D2D17",
">  c #5D371B",
",  c #6A2A13",
"<  c #7C2810",
"1  c #793314",
"2  c #7D4319",
"3  c #5F4921",
"4  c #5B5427",
"5  c #695B24",
"6  c #785F27",
"7  c #5D6A2E",
"8  c #616E2E",
"9  c #6C7C34",
"0  c #830A05",
"q  c #890E05",
"w  c #8D1105",
"e  c #851106",
"r  c #941405",
"t  c #991604",
"y  c #901907",
"u  c #9D1904",
"i  c #A31C04",
"p  c #BB171B",
"a  c #81240D",
"s  c #93310D",
"d  c #852E10",
"f  c #813213",
"g  c #823A14",
"h  c #A52305",
"j  c #AC2204",
"k  c #B22503",
"l  c #A0310B",
"z  c #CC191E",
"x  c #C6191D",
"c  c #C72220",
"v  c #CE2722",
"b  c #D72624",
"n  c #D82223",
"m  c #D32D25",
"M  c #CC3527",
"N  c #D23126",
"B  c #BF4F2C",
"V  c #82762F",
"C  c #8B6A35",
"Z  c #A66836",
"A  c #B26D30",
"S  c #A27B3E",
"D  c #C0482D",
"F  c #C74529",
"G  c #CC5729",
"H  c #C1702D",
"J  c #E77B44",
"K  c #5C8238",
"L  c #648638",
"P  c #758E34",
"I  c #739337",
"U  c #7FAE3E",
"Y  c #76A53D",
"T  c #5C9D44",
"R  c #669A41",
"E  c #5EA346",
"W  c #5FAC49",
"Q  c #61AC49",
"!  c #68A645",
"~  c #71AA44",
"^  c #6BB247",
"/  c #63B64C",
"(  c #6CB649",
")  c #66B94E",
"_  c #6CBC4D",
"`  c #73B646",
"'  c #7CB644",
"]  c #70B847",
"[  c #7CBE4B",
"{  c #77BB49",
"}  c #71C04F",
"|  c #7AC24D",
" . c #77C450",
".. c #78C450",
"X. c #7FC951",
"o. c #978B2A",
"O. c #93863B",
"+. c #849A3D",
"@. c #AC9E26",
"#. c #B19B2F",
"$. c #AB8732",
"%. c #AA9A32",
"&. c #B09332",
"*. c #9AA42F",
"=. c #85A43C",
"-. c #9DAB31",
";. c #93A332",
":. c #8AB73E",
">. c #85B23F",
",. c #9DB737",
"<. c #9EB837",
"1. c #94B73A",
"2. c #92B93C",
"3. c #9AB838",
"4. c #B2A426",
"5. c #B7A927",
"6. c #BBAD27",
"7. c #BBAF28",
"8. c #BFB027",
"9. c #BCBB2D",
"0. c #B9B72C",
"q. c #A2A934",
"w. c #A4B935",
"e. c #ADBB34",
"r. c #A6B733",
"t. c #B4BC31",
"y. c #C0A428",
"u. c #C3A526",
"i. c #C4B527",
"p. c #CBBA27",
"a. c #C5BB29",
"s. c #C8BC29",
"d. c #AAC43C",
"f. c #ADC83E",
"g. c #B2C036",
"h. c #839141",
"j. c #BE9148",
"k. c #84AF45",
"l. c #83B640",
"z. c #84BA42",
"x. c #CA994D",
"c. c #E88046",
"v. c #D3B14D",
"b. c #F1A354",
"n. c #EEBF5D",
"m. c #F5BB5D",
"M. c #F9BD5F",
"N. c #82CA51",
"B. c #88CE52",
"V. c #8CD253",
"C. c #92D453",
"Z. c #9CDA54",
"A. c #ACCB47",
"S. c #AFD748",
"D. c #A2CF55",
"F. c #B0CC56",
"G. c #A4DE55",
"H. c #AED456",
"J. c #B0D256",
"K. c #A7E055",
"L. c #B2E655",
"P. c #B2EA57",
"I. c #BCF059",
"U. c #C9C559",
"Y. c #D8C65B",
"T. c #CAD059",
"R. c #D4D45B",
"E. c #E8C55D",
"W. c #E7D05D",
/* pixels */
"                                                                                                                                ",
"                                                                                                                                ",
"                                                                                                                                ",
"                                                                                                                                ",
"                                                                                                                                ",
"                                                                                                                                ",
"                                                                                                                                ",
"                                                                                                                                ",
"                                                                                                                                ",
"                                                                                                                                ",
"                                                                                                                                ",
"                                                                                                                                ",
"                                                                                                                                ",
"                                                                                                                                ",
"                                                                                                                                ",
"                                                                                                                                ",
"                                                                                                                                ",
"                                                                                                                                ",
"                                                                                                                                ",
"                                                                          / / ) _ }  .N.B.C.J.Y.E.W.                            ",
"                                                                { ( ( ) / / / ) _ _  .X.B.D.n.M.x.j.M.                          ",
"                                                            { ] ( ( ( ) / / / / _  . .N.B.U.m.M.S C m.c.                        ",
"                                                        a.t.<.:.' ] ( / / / / ) _ _ ..N.B.Y.M.m.m.m.J c p                       ",
"                                                    p.p.p.p.p.a.0.r.1.' ) / / ) _  . .X.B.F.n.M.M.b.m x x                       ",
"                                                i.i.s.p.p.p.p.p.p.p.p.s.0.e.z.z.[ | | N.B.C.J.T.R.v.m z z                       ",
"                                            i.i.i.s.p.0.e.<.1.3.w.e.9.a.p.p.p.p.a.9.g.g.d.f.S.S.L.                              ",
"                                        u.i.i.i.i.i.0.1.:.U ` U ] ` ] l.2.3.t.t.e.e.e.d.d.                                      ",
"                                    6.7.7.i.i.i.i.i.r.:.N.U U { ] ] ( / / / Q _ _  . .X.B.V.                                    ",
"                                4.5.6.7.8.i.i.i.i.i.o.=.P Y ' { ` ( ( / / / W / _ }  .X.B.C.                                    ",
"                            @.4.4.5.7.8.5.y.i.i.p.u.s < , P ' ` ` ( ( / / / E / _ }  .X.B.C.Z.                                  ",
"                        U ;.*.-.-.q.&.H G           y q 0 5 Y ~ ~ ( ( ( / / E / _  ...X.B.C.Z.G.                                ",
"                  :.l.' ] ( ~ h.Z D M               w q 0 - , > L ] ) / / / T / _ _ ..N.B.C.Z.K.                                ",
"              <.1.:.l.=.S Z D m n               X o w q 0 & & $ L ] ( Q / / K R 9 9 ..N.B.C.Z.K.P.                              ",
"        n F #.#.$.A D M b n n n                 X O w q q * & @ 8 ] 7 K / T 1 l h g ! [ k.k.Z.K.L.I.                            ",
"    n n n b N N b n n n n n                     X e w q 0 & & % : 3 # 4 Q 4 e k k i f 2 d f h.K.P.A.                            ",
"    n n n n     n n n n                           r w q 0 0 & % % + % = > #   k k j i i u r a 6 V f                             ",
"                n n                               r w q q & & % % % % + % +     k j i i u t r w 0 0 *                           ",
"                                                    w q 0 * & & % % + % % %     j j h i u r r w w 0 0                           ",
"                                                    w w q & & % % + % + %         j i i u r r w q 0 * &                         ",
"                                                    q q 0 & & & % + + % +             i u r r w q 0 0 & &                       ",
"                                                  r w q 0 & & % % % + % %             i u r r w w 0 0 & &                       ",
"                                                  r w w 0 * & % % + + %                     r     0 * & & %       %             ",
"                                            i u r r w q 0 * & % % + %                             0 * & % % % + % + % %         ",
"                                            i u r r w q 0 * & & % %                                 0     % + %   %             ",
"                                      k j i i u t r w w 0 * & & %                                                               ",
"                                                                                                                                ",
"                                                                                                                                ",
"                                                                                                                                ",
"                                                                                                                                ",
"                                                                                                                                ",
"                                                                                                                                ",
"                                                                                                                                ",
"                                                                                                                                ",
"                                                                                                                                ",
"                                                                                                                                ",
"                                                                                                                                "
};
