/* XPM */
static char *_01707604466[] = {
/* columns rows colors chars-per-pixel */
"64 56 174 2 ",
"   c None",
".  c #211D1F",
"X  c #231E20",
"o  c #6E0106",
"O  c #6D0909",
"+  c #700006",
"@  c #7B0606",
"#  c #7E0905",
"$  c #760F08",
"%  c #691A10",
"&  c #6D2513",
"*  c #6A2A16",
"=  c #6B3619",
"-  c #723D19",
";  c #3D4428",
":  c #66431E",
">  c #414B29",
",  c #5F4824",
"<  c #4C592B",
"1  c #654D23",
"2  c #695C29",
"3  c #7A5E24",
"4  c #566C2F",
"5  c #5B7E35",
"6  c #636C2E",
"7  c #6B772F",
"8  c #7D7B2F",
"9  c #830905",
"0  c #800705",
"q  c #8B1506",
"w  c #871908",
"e  c #941404",
"r  c #991604",
"t  c #951A06",
"y  c #9C1904",
"u  c #A41D04",
"i  c #A81F04",
"p  c #BB171B",
"a  c #8E290E",
"s  c #972A0C",
"d  c #98340E",
"f  c #923410",
"g  c #AC2104",
"h  c #B32503",
"j  c #CE171D",
"k  c #CC1A1E",
"l  c #DA1F22",
"z  c #D82223",
"x  c #D32C25",
"c  c #D52624",
"v  c #C93728",
"b  c #CA3E28",
"n  c #D6392A",
"m  c #86471C",
"M  c #855D22",
"N  c #B6542F",
"B  c #886423",
"V  c #847A2C",
"C  c #86742A",
"Z  c #BF662B",
"A  c #A56235",
"S  c #BC6830",
"D  c #A37735",
"F  c #C6472C",
"G  c #C3532A",
"H  c #DA4F32",
"J  c #C55B30",
"K  c #C46229",
"L  c #5D8038",
"P  c #628C39",
"I  c #7C8D36",
"U  c #798C3A",
"Y  c #63953D",
"T  c #699B3E",
"R  c #7C9939",
"E  c #7BA43C",
"W  c #7EAC3F",
"Q  c #629E43",
"!  c #739A40",
"~  c #63A546",
"^  c #69A441",
"/  c #64AA46",
"(  c #6BAC46",
")  c #77A041",
"_  c #76A944",
"`  c #64B64C",
"'  c #6CB649",
"]  c #64B94E",
"[  c #6BBC4E",
"{  c #6EB447",
"}  c #74B646",
"|  c #7BB643",
" . c #74B847",
".. c #7CB844",
"X. c #73BF4E",
"o. c #75C24F",
"O. c #6FC150",
"+. c #7BC650",
"@. c #74C250",
"#. c #83812F",
"$. c #8A8C34",
"%. c #89873F",
"&. c #848C38",
"*. c #809834",
"=. c #979837",
"-. c #A79C28",
";. c #A58D37",
":. c #84AE3C",
">. c #93A83B",
",. c #8CB63D",
"<. c #8DB83D",
"1. c #94B53A",
"2. c #98B439",
"3. c #96B93A",
"4. c #9BBE3D",
"5. c #AFA227",
"6. c #A5A62F",
"7. c #B2A627",
"8. c #B6A827",
"9. c #BBAD27",
"0. c #B4AD2A",
"q. c #BAA22B",
"w. c #BEB027",
"e. c #BEB72A",
"r. c #B7BB2F",
"t. c #BDBA2C",
"y. c #B3B42D",
"u. c #AEA730",
"i. c #A0B735",
"p. c #A6BA35",
"a. c #ADB932",
"s. c #A5B935",
"d. c #B2BA30",
"f. c #C28C29",
"g. c #C4B427",
"h. c #C7B827",
"j. c #CAB926",
"k. c #C4B728",
"l. c #C6B928",
"z. c #C8BA28",
"x. c #ABC038",
"c. c #A18B41",
"v. c #82B641",
"b. c #83BA42",
"n. c #92B145",
"m. c #F09F53",
"M. c #D8A552",
"N. c #D4BA56",
"B. c #EEBD5C",
"V. c #EDB55A",
"C. c #F5BC5E",
"Z. c #F9BD5F",
"A. c #8DC249",
"S. c #98C745",
"D. c #84CB51",
"F. c #99CB54",
"G. c #92C953",
"H. c #8CD152",
"J. c #95D653",
"K. c #9FDB54",
"L. c #A4CF47",
"P. c #A9D449",
"I. c #A4C655",
"U. c #A4D855",
"Y. c #B3D655",
"T. c #AAE356",
"R. c #B2E757",
"E. c #B5EA57",
"W. c #BFEF58",
"Q. c #B9E759",
"!. c #C5C859",
"~. c #DBC15B",
"^. c #C2F459",
"/. c #F8C360",
/* pixels */
"                                                                                                                                ",
"                                                              u                                                                 ",
"                                                              y                                                                 ",
"                                                              y y                                               +               ",
"                                                              y y                                             + +               ",
"                                                      i       u r                                             + +               ",
"                                                      g i     y y                                       +     + +               ",
"                                                        i     y y                                       +     + +               ",
"                                                        i u   y r r                                     + +   + +               ",
"                                                        i i     y r                                     + + + + +               ",
"                                                          u u r y r                                     + + + + +               ",
"                                                h h       u u u y r                             + + +   + + + + o               ",
"                                                  h g     u u y r r r                             + + + + o + + +               ",
"                                                  h g g i   y y y r e                             + + + + + + + +               ",
"                                                    g g i u u y y r e e                     + +     + + o + + o +               ",
"                                                        i i y y r r e q                       + + + + + + + + + +               ",
"                                              h h h g g i i u y y r w = -                     + + + + + + + o +                 ",
"                                                h h g g i u u y y r w 7 T                 + + + + + + + o o o o                 ",
"                                                    g g i u y y y r e 3  .P                 + + o o + + * %.=.m                 ",
"                                                  h g g i u u y r r f 8  .Y                 o + o o o & n.E.^.                  ",
"                                              h h h g g u u u y y r V  . .T             + + + + + O * &.T.E.^.                  ",
"                                                  h g g u u u y r r C  . .^         @ @ @ + + + * U A.K.T.E.                    ",
"                                                    g g i u u y y r B  . .^       # @ @ + + @ % ! H.J.K.T.R.                    ",
"                                                    g g i u u y r s :. . .( 4     # @ @ @ @ + 2 D.H.J.T.T.                      ",
"                                                    h g u u y y r f W  . .{ 5   9 @ @ @ @ & 1 ! D.H.J.K.                        ",
"                                                    g g i u u y y t V  . . .Y   9 0 @ @ 1 / X.+.D.H.J.                          ",
"                                                    g g i u u y y r f R  .' ~ = 9 0 @ * ~ O.@.+.D.H.J.                          ",
"                                                      g i u u y r r e M  .{ ' 6 $ @ @ 2 [ [ @.+.D.H.                            ",
"                                                        i u u y y r r I  .' ' / , $ = ~ [ [ @.+.D.H.J.U.Q.                      ",
"                                                        i i u y y r e 8  .' ' ` / 5 ~ ] [ X.@.+.D.F.!.N.c.N.                    ",
"                                                          i y y y r e a I ' ' ` ` ` ] ] [ [ @.+.F.N.Z.M.1 M./.                  ",
"                                                            u y r r e e 8 ' ' ' ` ] ` ] [ [ @.+.I.C.Z.C.V.C.m.                  ",
"                                                            d s t t e m } { { ` ` ` ` ] ] [ o.+.F.C.C.C.Z.m.n p                 ",
"                                                        k.y.6.=.$.V V E  .{ ' ` ` ` ` ] [ [ o.+.D.!.B.C.C.H k k k               ",
"                                                    k.k.k.z.h.k.a.4.b. . .{ ` ` ` ` ] ] [ [ O.+.D.H.U.Y.Y.J j k                 ",
"                                                g.g.k.k.h.k.h.h.j.z.t.r.s.3.<.<.b... .....A.A.A.S.S.L.L.      k                 ",
"                                            9.9.9.g.g.g.k.k.r.a.a.d.r.t.t.t.t.t.r.d.d.a.p.4.4.x.                                ",
"                                        8.9.9.g.g.g.g.k.g.a.1.,.:.b.W | ..|  . .' ` ] ] [ [                                     ",
"                                    7.7.8.8.9.9.g.g.g.g.e.1.,.,.b...| }  .{ ' ` ` ` ] ]                                         ",
"                                -.-.-.7.0.0.q.f.    k.g.k.2.,.,.b.:.|  . .{ ' ` `                                               ",
"                            | } :.:.v.>.;.S F             *.,.E W | |                                                           ",
"                        ,.b...} _ %.A b c                 ; < > ;                                                               ",
"                  u.i.2.>.=.D N v c l z                   X .   .                                                               ",
"            z z x K K G F c z z z z                       X                                                                     ",
"          z z z z z z z z z z z                                                                                                 ",
"                      z z z                                                                                                     ",
"                                                                                                                                ",
"                                                                                                                                ",
"                                                                                                                                ",
"                                                                                                                                ",
"                                                                                                                                ",
"                                                                                                                                ",
"                                                                                                                                ",
"                                                                                                                                ",
"                                                                                                                                ",
"                                                                                                                                "
};
