/* XPM */
static char *_21707604467[] = {
/* columns rows colors chars-per-pixel */
"64 56 181 2 ",
"   c None",
".  c #221F20",
"X  c #232121",
"o  c #6B0809",
"O  c #710006",
"+  c #7B0605",
"@  c #7E0805",
"#  c #69140E",
"$  c #75150C",
"%  c #582316",
"&  c #632F17",
"*  c #732711",
"=  c #6E3318",
"-  c #763818",
";  c #79431B",
":  c #77511E",
">  c #5C5627",
",  c #695C26",
"<  c #755B25",
"1  c #655033",
"2  c #56672E",
"3  c #766A2A",
"4  c #75732E",
"5  c #820A05",
"6  c #890E05",
"7  c #8E1105",
"8  c #8E1E08",
"9  c #801E0C",
"0  c #951404",
"q  c #991704",
"w  c #9D1904",
"e  c #941D07",
"r  c #A41D04",
"t  c #A91F04",
"y  c #B2161A",
"u  c #982007",
"i  c #952B0C",
"p  c #952409",
"a  c #A42106",
"s  c #AB2104",
"d  c #B02403",
"f  c #B02D06",
"g  c #B0390A",
"h  c #CD1A1E",
"j  c #C8181D",
"k  c #D91F23",
"l  c #D62524",
"z  c #D82223",
"x  c #D52824",
"c  c #CE3427",
"v  c #C83729",
"b  c #D33424",
"n  c #AE4A0F",
"m  c #AC5F16",
"M  c #BD4A2C",
"N  c #AE5632",
"B  c #BC5E30",
"V  c #8F7824",
"C  c #807528",
"Z  c #947222",
"A  c #917D3C",
"S  c #AA6C33",
"D  c #C9472A",
"F  c #C25D2A",
"G  c #DB4830",
"H  c #DF5F39",
"J  c #D15E35",
"K  c #C46229",
"L  c #C17537",
"P  c #7D8029",
"I  c #6C8437",
"U  c #788834",
"Y  c #6F963A",
"T  c #709F3C",
"R  c #7CAD3F",
"E  c #7AA73D",
"W  c #5C9C43",
"Q  c #5D9540",
"!  c #649C42",
"~  c #7D9D43",
"^  c #5FA646",
"/  c #5FB04B",
"(  c #60AE4A",
")  c #62A745",
"_  c #77AD46",
"`  c #64B64C",
"'  c #6CB649",
"]  c #66BA4E",
"[  c #6CBC4E",
"{  c #74B546",
"}  c #7BB543",
"|  c #72B847",
" . c #6ABE50",
".. c #73C14F",
"X. c #7BC650",
"o. c #72C150",
"O. c #8F8E38",
"+. c #848836",
"@. c #9B8C38",
"#. c #8B9A32",
"$. c #A68323",
"%. c #A69D28",
"&. c #B59F29",
"*. c #A38338",
"=. c #86A73D",
"-. c #93A336",
";. c #8BB63D",
":. c #81B13F",
">. c #9EB536",
",. c #92B63B",
"<. c #99B438",
"1. c #96BB3C",
"2. c #98B939",
"3. c #9CB837",
"4. c #AFA227",
"5. c #A1A72E",
"6. c #AEA228",
"7. c #AEA82C",
"8. c #B7A927",
"9. c #BBAC27",
"0. c #B0A729",
"q. c #B1AE2C",
"w. c #B3A527",
"e. c #ACB02F",
"r. c #BFB027",
"t. c #BDB52A",
"y. c #BCBA2C",
"u. c #B6B32C",
"i. c #ABAF31",
"p. c #ABB631",
"a. c #ACBA33",
"s. c #A5B734",
"d. c #BABE30",
"f. c #C4842A",
"g. c #C1AF27",
"h. c #C4B527",
"j. c #CBBA27",
"k. c #C3B728",
"l. c #C5BB29",
"z. c #CBBD28",
"x. c #ABC93F",
"c. c #B2C237",
"v. c #B48A4A",
"b. c #83B741",
"n. c #85BA42",
"m. c #88B845",
"M. c #C89950",
"N. c #DFAA57",
"B. c #DFBF5B",
"V. c #E3AF59",
"C. c #F3A856",
"Z. c #EBB45B",
"A. c #E6BF5C",
"S. c #EDBF5C",
"D. c #F7BC5E",
"F. c #FABD5F",
"G. c #85C047",
"H. c #8CCB4D",
"J. c #88C348",
"K. c #96D04D",
"L. c #85CD52",
"P. c #89C752",
"I. c #91D353",
"U. c #9CDA54",
"Y. c #A2C049",
"T. c #A8D349",
"R. c #A0CF54",
"E. c #A4C755",
"W. c #BDC858",
"Q. c #BEC358",
"!. c #A1D750",
"~. c #AADD52",
"^. c #A5DB53",
"/. c #A9E356",
"(. c #B9EE58",
"). c #B0E054",
"_. c #C2CD58",
"`. c #D8C75B",
"'. c #D4CB5A",
"]. c #CCD65A",
"[. c #EBC95D",
/* pixels */
"                                                                                                                                ",
"                                                                                                                                ",
"                                                                                                                                ",
"                                                                                                                                ",
"                                                                                                                                ",
"                                                                                                                                ",
"                                                                                                                                ",
"                                                                                                                                ",
"                                                                                                                                ",
"                                                                                                                                ",
"                                                                                                                                ",
"                                                                                                                                ",
"                                                                                                                                ",
"                                                                                                                                ",
"                                                                                                                                ",
"                                                                                                                                ",
"                                                                                                                                ",
"                                                                                                                                ",
"                                                                                                                                ",
"                                                                                                                                ",
"                                                                                                                                ",
"                                                                                                                                ",
"                                                                                                                                ",
"                                                                                                                                ",
"                                                                                                                                ",
"                                                                                          ..X.L.R._.].].                        ",
"                                                                        } { ' ' ` ` ` ] [ ..X.E.A.D.Z.[.[.                      ",
"                                                                  ;.b.b.} { ' ' ` / ` ] [ ..P.B.D.V.1 M.F.                      ",
"                                                            >.<.,.;.;.} { { ' ' ` ^ ) ] [ [ P.Z.D.Z.v.V.C.H                     ",
"                                                        p.p.p.p.s.s.3.,.n.{ ' ' ` ^ W ] [ [ X._.D.D.F.C.G j y                   ",
"                                                    t.t.k.k.j.j.z.j.z.l.l.a.1.n.| ) W [  ...X.H._.`.`.J h h h                   ",
"                                                t.t.k.h.j.j.k.y.y.y.y.l.z.j.j.l.y.5.-.2.m.J.J.H.K.!./.L h h h                   ",
"                                              t.h.h.h.j.k.u.s.2.;.;.;.,.1.a.y.l.j.4.9.z.l.c.d.c.x.T.~.                          ",
"                                          r.r.g.h.h.h.h.y.$.Z #.C 3 R R Y | T E n.U =.;.;.J.J.H.I.U./.                          ",
"                                      8.8.r.r.k.h.h.h.k.p.m s i q 8 : ; * , & > Q 2 / ] o.....L.I.U./.).                        ",
"                                  0.0.8.9.9.g.h.h.h.k.t.e.n t t w q 7 6 5 + O o # * 4 ! I < { L.m.U ^.(.Y.                      ",
"                              %.%.&.6.7.q.&.f.    h.j.y.7.g s r w 0 7 6 5 @ + O O 0 s i u w - 4 - $ +.~.O.                      ",
"                          } { } } b.#.*.F D           4 V f s a w 0 0 7 5 @ O O O w d s r w 0 7 6 5 $ = #                       ",
"                    ,.;.n.{ _ ~ A N v x             X X % d s r w q 7 7 5 + + O O w s s w w 0 7 6 5 + O O                       ",
"                i.s.<.-.@.S M c z z z               X X   u a r w q 7 7 5 + O O O   d s w w 0 7 6 @ + O O                       ",
"          l z b K F D c x z z z z                   X     % s r w q   7 5 @ O O O     s r w 0 7   @ @ O O                       ",
"      z z z z z z z z z z z z                               s t w q   6 5   O O O   d s r w 0     5 + O O                       ",
"                    z z z                                   s   w q   7 6   O O O   d t r   0     5     O                       ",
"                    z                                       s   w     6 6   O O O     t     0     5     O                       ",
"                                                            s   w     6 6   O O O     t   q 0     5     O O                     ",
"                                                            s   w     6 6     O O     t   q       5     O O                     ",
"                                                                w     6 5     O O         w       5     O O                     ",
"                                                                w     7 5     O O         w       5       O O                   ",
"                                                                w     6 6     O O                 5       O O                   ",
"                                                                w       5     O O O               5       O O O                 ",
"                                                                        5       O O               5         O O                 ",
"                                                                        5 @     O O               @         O O                 ",
"                                                                          @     O O O                         O O               ",
"                                                                                  O O                           O               ",
"                                                                                    O O                                         ",
"                                                                                      O                                         "
};
