/* XPM */
static char *_01707604466[] = {
/* columns rows colors chars-per-pixel */
"64 56 180 2 ",
"   c None",
".  c #221E20",
"X  c #323625",
"o  c #353926",
"O  c #5E170F",
"+  c #5E1F12",
"@  c #6D0106",
"#  c #690508",
"$  c #670809",
"%  c #700006",
"&  c #7E0604",
"*  c #7D0B06",
"=  c #6B150D",
"-  c #69180E",
";  c #7C160C",
":  c #7D190B",
">  c #721B0D",
",  c #5F2716",
"<  c #5D3C1E",
"1  c #792C14",
"2  c #683B1C",
"3  c #723E1B",
"4  c #5C401F",
"5  c #574521",
"6  c #4C5327",
"7  c #575728",
"8  c #694B22",
"9  c #6C5E29",
"0  c #775222",
"q  c #705836",
"w  c #567333",
"e  c #6C6F2D",
"r  c #776729",
"t  c #617B33",
"y  c #757B31",
"u  c #830A05",
"i  c #8A0D05",
"p  c #8A1808",
"a  c #83190A",
"s  c #921305",
"d  c #9C1804",
"f  c #9C1704",
"g  c #A71F04",
"h  c #A81F04",
"j  c #B6171A",
"k  c #82260F",
"l  c #992E0C",
"z  c #822910",
"x  c #893714",
"c  c #B42603",
"v  c #B82803",
"b  c #CE191E",
"n  c #D72623",
"m  c #D82223",
"M  c #D22F26",
"N  c #C83A2A",
"B  c #D13826",
"V  c #D33624",
"C  c #81481B",
"Z  c #81501E",
"A  c #A25814",
"S  c #815821",
"D  c #B25932",
"F  c #806C28",
"G  c #906920",
"H  c #927324",
"J  c #997939",
"K  c #B3642F",
"L  c #C3452A",
"P  c #D7402D",
"I  c #D8442F",
"U  c #C66A2E",
"Y  c #5B8A3C",
"T  c #788835",
"R  c #66963E",
"E  c #73943B",
"W  c #759C3C",
"Q  c #799538",
"!  c #7BA53D",
"~  c #77A63D",
"^  c #5F9D43",
"/  c #699B40",
"(  c #799E40",
")  c #64A344",
"_  c #6EAD45",
"`  c #63AE49",
"'  c #77AD40",
"]  c #79A143",
"[  c #63B64C",
"{  c #6AB649",
"}  c #64B84D",
"|  c #6BBB4D",
" . c #72B646",
".. c #79B544",
"X. c #74B847",
"o. c #70B848",
"O. c #79B647",
"+. c #72C04F",
"@. c #7BC44F",
"#. c #79C550",
"$. c #7FC951",
"%. c #73C350",
"&. c #91843D",
"*. c #88993F",
"=. c #8C9D35",
"-. c #B38B20",
";. c #AB9D26",
":. c #B4962E",
">. c #A98133",
",. c #B78532",
"<. c #A59734",
"1. c #9AA22F",
"2. c #83A73A",
"3. c #80AF3F",
"4. c #8FA434",
"5. c #9DAD34",
"6. c #9CA630",
"7. c #86B73F",
"8. c #8DB63D",
"9. c #8DB93E",
"0. c #9FB937",
"q. c #93B53A",
"w. c #9AB638",
"e. c #9CBA39",
"r. c #93B93B",
"t. c #AFA027",
"y. c #B4A627",
"u. c #BBAD27",
"i. c #BDAC29",
"p. c #B3B72E",
"a. c #BBB42A",
"s. c #BABA2D",
"d. c #A7A435",
"f. c #A3B734",
"g. c #ACB631",
"h. c #A2BA36",
"j. c #ACBA32",
"k. c #B3BA30",
"l. c #C2A828",
"z. c #C3B427",
"x. c #C9B927",
"c. c #C2B629",
"v. c #C4BA29",
"b. c #C9BC29",
"n. c #ACC33A",
"m. c #A3C03B",
"M. c #AF8749",
"N. c #BA8F4C",
"B. c #81AE41",
"V. c #91AF44",
"C. c #83B641",
"Z. c #86BB42",
"A. c #87BD4B",
"S. c #CA9141",
"D. c #D8A555",
"F. c #EEA454",
"G. c #F1A555",
"H. c #ECBC5C",
"J. c #EAB25A",
"K. c #F5BC5E",
"L. c #F9BD5E",
"P. c #89CB4F",
"I. c #95D24F",
"U. c #82CA51",
"Y. c #89CE52",
"T. c #96CC53",
"R. c #9ECA54",
"E. c #93D454",
"W. c #9DD750",
"Q. c #9CDA55",
"!. c #BBCF58",
"~. c #A4DD53",
"^. c #A0D054",
"/. c #B3D957",
"(. c #AEE756",
"). c #CCCC59",
"_. c #CAC659",
"`. c #CAD95A",
"'. c #E5C25C",
"]. c #F2C15D",
/* pixels */
"                                                                                                                                ",
"                                          v v                                                                                   ",
"                                            v v                                                                                 ",
"                                              v v v                                                                             ",
"                                                v v v v                                                                         ",
"                                        v v v     v v c h                                                     @ @               ",
"                                          v v v v v v c h d                                           %       @                 ",
"                                              v v v v c h d s i                             % %     % %     % %                 ",
"                                                v v v c h d s i u                           % %     % %   % %                   ",
"                                                    v c h d s i u *                         % %     % % % %                     ",
"                                        v v v         c h d s i u * =                 % %   % %   % % % % %                     ",
"                                        v v v v v v v c h d s i u > t t               % % % % % % % % % %                       ",
"                                                v v v c g d s i u > R X./ w             % % % % % % % % %                       ",
"                                                      c g f s i u * e o.{ )       %     % % % % % % % %                         ",
"                                                  v v c g f s i u * 3 _ { { w     % %   % % % % % % % %                         ",
"                                            v v v v v c g f s i k T W _ { { Y     % % % % % % % # O $ %                         ",
"                                        v v v v v v v c g d s i C ..X.{ { } /     % % % % % @ @ 8 ( 8                           ",
"                                                  v v c g d s i x ..X. .{ } ) 6   % % % % % @ 2 P.~.V.                          ",
"                                                v v v c g d s i a Q X. .{ { ` 5 % % @ % % % = ( E.Q.~.                          ",
"                                              v v v v c g d s i a T X. .{ { ` < % % @ $ + = q Y.E.Q.                            ",
"                                                    v c g d s i Z ..X.X.{ { [ 5 % % # 7 ) / O.Y.E.                              ",
"                                                    v c g d s i r ..X.X.{ { ` < % % , ) #.#.U.Y.                                ",
"                                                    v c g d s i S X. . .{ { ` < @ @ 7 o.%.#.$.Y.                                ",
"                                                    v c g d s i z !  .o.{ { ` < $ , R +.| #.U.                                  ",
"                                                    v c h d s i u r  .o.{ { [ Y w ^ } +.%.#.$.                                  ",
"                                                      c h d s i u a T o.{ { [ [ } } } | %.#.                                    ",
"                                                      c h d s i u u T o.{ { [ [ [ } | +.| #.                                    ",
"                                                      c h d s i u ; W o.{ { [ [ [ } | | %.#.      Q./.`.                        ",
"                                                      c h f s i u : W o.{ [ [ [ [ } | | | #.$.Y.^.).'.K.H.H.                    ",
"                                                        h d s i u * r { { { [ [ [ } } | %.#.$.T.'.K.L.N.q J.L.                  ",
"                                                        g f s i u & ; r _ { [ [ [ } | | | U.$.R.H.L.L.D.M.K.G.                  ",
"                                                          l s i u & 1 E { { [ [ } } | | | $.U.T.H.L.L.L.L.G.I j                 ",
"                                                      w.q.=.x i u & 0  .{ { [ [ [ } } | +.#.U.Y._.L.L.K.F.B b b                 ",
"                                                  c.a.p.g.h.H p u * y  .{ { [ [ } } | | +.#.U.Y.T.!.).`.S.b b b                 ",
"                                              z.c.c.x.x.x.x.a.-.A G 7.X.{ { [ [ } } | | %.#.U.Y.I.W.(.(.                        ",
"                                          u.u.z.z.z.c.c.v.v.v.b.x.v.s.s.k.j.j.h.h.h.e.e.m.m.n.n.                                ",
"                                      u.u.i.z.z.z.z.a.g.w.q.q.q.w.0.h.h.h.0.e.r.9.Z.Z.Z.                                        ",
"                                  y.y.u.u.i.u.z.z.x.p.q.q.7.C.C...X. .{ { } [ [ [ }                                             ",
"                              ;.;.y.y.u.a.i.l.l.z.z.g.q.q.7.C.C.....X. .{ { [ [                                                 ",
"                          ..4.1.6.5.5.d.,.U         w.q.2.2.! ' ' ..                                                            ",
"                      C...X.{ _ ] &.D N               7 o o o o                                                                 ",
"                h.w.9.C.B.*.J D N n m                   . .   .                                                                 ",
"            V :.d.<.>.K L M m m m                       .     .                                                                 ",
"      m n m n B B M n m m m m                                                                                                   ",
"      m m m m m     n m n n                                                                                                     ",
"                  m m m                                                                                                         ",
"                                                                                                                                ",
"                                                                                                                                ",
"                                                                                                                                ",
"                                                                                                                                ",
"                                                                                                                                ",
"                                                                                                                                ",
"                                                                                                                                ",
"                                                                                                                                ",
"                                                                                                                                ",
"                                                                                                                                "
};
