/* XPM */
static char *_01707606675[] = {
/* columns rows colors chars-per-pixel */
"32 28 134 2 ",
"   c None",
".  c #6F0006",
"X  c #6E0508",
"o  c #700005",
"O  c #700006",
"+  c #6C2F18",
"@  c #702212",
"#  c #693D1D",
"$  c #753117",
"%  c #7E3F1C",
"&  c #4D4A24",
"*  c #7B672D",
"=  c #941204",
"-  c #941304",
";  c #931405",
":  c #901506",
">  c #951504",
",  c #941505",
"<  c #991704",
"1  c #961906",
"2  c #9A1804",
"3  c #9A1B05",
"4  c #9E1904",
"5  c #9E1A04",
"6  c #9F1A04",
"7  c #9E1B04",
"8  c #A01A04",
"9  c #A11B04",
"0  c #A21A04",
"q  c #A21C04",
"w  c #A31C04",
"e  c #A71E04",
"r  c #A71F04",
"t  c #A81F04",
"y  c #8A290D",
"u  c #922E0E",
"i  c #923E13",
"p  c #AD2203",
"a  c #AB2104",
"s  c #AC2104",
"d  c #AD2104",
"f  c #B02303",
"g  c #B12403",
"h  c #B22403",
"j  c #B52603",
"k  c #CD191E",
"l  c #D82223",
"z  c #D82323",
"x  c #D42A24",
"c  c #CE3C26",
"v  c #C63929",
"b  c #D43124",
"n  c #8B511A",
"m  c #8A5A1F",
"M  c #AD7F1E",
"N  c #B94D2E",
"B  c #8B6D2C",
"V  c #B67C2E",
"C  c #AA6A33",
"Z  c #D4462F",
"A  c #D76A3B",
"S  c #719336",
"D  c #78A73D",
"F  c #68AB45",
"G  c #6BAB47",
"H  c #61B04A",
"J  c #64B14A",
"K  c #62B74D",
"L  c #6BB749",
"P  c #6AB64A",
"I  c #65BA4E",
"U  c #68B84C",
"Y  c #6DBF4F",
"T  c #76B745",
"R  c #75B746",
"E  c #7BB241",
"W  c #7AB442",
"Q  c #7CB443",
"!  c #7DB743",
"~  c #79B34A",
"^  c #70BD4D",
"/  c #B7811B",
"(  c #B6821C",
")  c #B7841C",
"_  c #9D8E29",
"`  c #9F9B2A",
"'  c #8D9431",
"]  c #A38635",
"[  c #A18E32",
"{  c #AA9232",
"}  c #88A136",
"|  c #8BA139",
" . c #8DAC39",
".. c #88B33D",
"X. c #88B73F",
"o. c #9CB537",
"O. c #9EB536",
"+. c #92B63B",
"@. c #91B93C",
"#. c #90BC3F",
"$. c #9CB938",
"%. c #A3A32B",
"&. c #AFA628",
"*. c #B6AA28",
"=. c #BDA928",
"-. c #A9B02F",
";. c #BEB027",
":. c #B5B62D",
">. c #BEB72B",
",. c #BFB92B",
"<. c #B9BA2E",
"1. c #BCBA2C",
"2. c #ADB530",
"3. c #A8B934",
"4. c #B3BA30",
"5. c #C2AF27",
"6. c #C2B427",
"7. c #C5B627",
"8. c #C6B827",
"9. c #C5B929",
"0. c #A7AF4B",
"q. c #E1954D",
"w. c #C3A14D",
"e. c #DCBF5B",
"r. c #E2B358",
"t. c #F3B85C",
"y. c #80C54E",
"u. c #9CC340",
"i. c #81C451",
"p. c #ACC04E",
"a. c #AFC954",
"s. c #AAD450",
"d. c #C0C057",
"f. c #D2C759",
/* pixels */
"                                                                ",
"                                                                ",
"                                                                ",
"                          w                                     ",
"                      p   w                                     ",
"                      s   w 0                               O   ",
"                      a   0 0                               O   ",
"                  j     a w 7 <                         O O O   ",
"                    g   t w 7 <                       O O O O   ",
"                      s t 0 7 < >                   O O O O O   ",
"                    g s t 0 7 < > y               O O O . O     ",
"                    f s t 0 7 < ; n } S           X @ $ B %     ",
"                      s t w 7 < - i  .D       # + * 0.p.s.      ",
"                        t w 7 < - u ' E F H J G ~ d.r.w.        ",
"                          0 7 3 1 ; m Q P K I Y i.e.t.q.Z       ",
"                            ) / ( M _ ..T P U ^ y.a.f.A k       ",
"                        ;.6.9.9.1.1.<.4.3.$.@.#.u.              ",
"                    &.*.=.5.7.>.:.2.O.+.X.! T                   ",
"                W | [ V       ` %.2.o.                          ",
"            { ] C N v           &                               ",
"        l b c x l                                               ",
"                                                                ",
"                                                                ",
"                                                                ",
"                                                                ",
"                                                                ",
"                                                                ",
"                                                                "
};
