/* XPM */
static char *_21707606675[] = {
/* columns rows colors chars-per-pixel */
"32 28 158 2 ",
"   c None",
".  c #6F0006",
"X  c #6F0106",
"o  c #6D0307",
"O  c #6E0608",
"+  c #730005",
"@  c #700006",
"#  c #750306",
"$  c #760306",
"%  c #740808",
"&  c #6F100B",
"*  c #6F160E",
"=  c #77140B",
"-  c #7D1108",
";  c #681B10",
":  c #702913",
">  c #68381B",
",  c #6E3A1C",
"<  c #6D3E1D",
"1  c #454B27",
"2  c #645728",
"3  c #586A2E",
"4  c #7D6926",
"5  c #6F7C34",
"6  c #810805",
"7  c #810905",
"8  c #810A05",
"9  c #8B0F05",
"0  c #8C0F05",
"q  c #881507",
"w  c #931404",
"e  c #971504",
"r  c #981604",
"t  c #A21C04",
"y  c #A31C04",
"u  c #CA191D",
"i  c #D72523",
"p  c #DA2023",
"a  c #D82323",
"s  c #D82423",
"d  c #D02D26",
"f  c #C63C29",
"g  c #D43224",
"h  c #925E1A",
"j  c #BA562E",
"k  c #BE5D2F",
"l  c #856521",
"z  c #BC722C",
"x  c #AC6A33",
"c  c #B27330",
"v  c #D85935",
"b  c #698238",
"n  c #698939",
"m  c #6B8938",
"M  c #7D9A37",
"N  c #7A933C",
"B  c #769E3F",
"V  c #669B41",
"C  c #709C41",
"Z  c #67A644",
"A  c #61B64D",
"S  c #69B148",
"D  c #6BB649",
"F  c #6BB749",
"G  c #69B74B",
"H  c #6AB64A",
"J  c #6BB64A",
"K  c #65B94E",
"L  c #69B94B",
"P  c #6FBF4F",
"I  c #70B647",
"U  c #78B644",
"Y  c #79B644",
"T  c #7AB644",
"R  c #77BA47",
"E  c #70B648",
"W  c #71B748",
"Q  c #73B948",
"!  c #71BF4F",
"~  c #79BC49",
"^  c #79BF4B",
"/  c #73C150",
"(  c #73C250",
")  c #73C551",
"_  c #8C892A",
"`  c #989C2E",
"'  c #92843A",
"]  c #BF9F2C",
"[  c #81AF3E",
"{  c #98A230",
"}  c #99A630",
"|  c #9BAE34",
" . c #85B53F",
".. c #8AB23C",
"X. c #8CB63C",
"o. c #8CB63D",
"O. c #96B93A",
"+. c #90B93F",
"@. c #99B839",
"#. c #9BB838",
"$. c #A7A72E",
"%. c #A9AA2E",
"&. c #BAAD27",
"*. c #B3A22D",
"=. c #BEB027",
"-. c #B2B12C",
";. c #B5B62D",
":. c #BCB028",
">. c #BFB72A",
",. c #B7BA2E",
"<. c #BEB82B",
"1. c #BAB92D",
"2. c #A5B433",
"3. c #A5B533",
"4. c #A7B533",
"5. c #A5B634",
"6. c #ABB631",
"7. c #A8B733",
"8. c #A0B937",
"9. c #ABBA32",
"0. c #AABA33",
"q. c #ADBA32",
"w. c #A8BB35",
"e. c #A9BD36",
"r. c #B1B430",
"t. c #B4B931",
"y. c #C1B327",
"u. c #C3B327",
"i. c #C5B627",
"p. c #C0B729",
"a. c #ABC139",
"s. c #81A041",
"d. c #82B040",
"f. c #83B540",
"g. c #81B640",
"h. c #83B640",
"j. c #83B641",
"k. c #83B741",
"l. c #86B740",
"z. c #81B842",
"x. c #86B940",
"c. c #8DBF4B",
"v. c #BEAB51",
"b. c #DD954F",
"n. c #D0B556",
"m. c #EEB25B",
"M. c #86C74E",
"N. c #8CC94D",
"B. c #94C249",
"V. c #99C749",
"C. c #9ECD4C",
"Z. c #80C650",
"A. c #86C751",
"S. c #A9CB41",
"D. c #B7CA55",
"F. c #B7CA57",
"G. c #DBC15B",
"H. c #DCC158",
/* pixels */
"                                                                ",
"                                                                ",
"                                                                ",
"                                                                ",
"                                                                ",
"                                                                ",
"                                                                ",
"                                                                ",
"                                                                ",
"                                                                ",
"                                                                ",
"                                    # @ @                       ",
"                              e 0 8 # @ O ;         = & X       ",
"                            y r 9 8 # o , N     4 n 5 < X @     ",
"                            y   0 8 % 2 C c._ {  .G b = @ @     ",
"                                0 - : V ) B.%.5.g.Z > @ @ @     ",
"                              w q l M S ) B.r.5.j.n             ",
"                                h ` x.J ) S.t.5.f.C             ",
"                                -.2.f.J ! N.+.l.~ Z.F.n.n.      ",
"                                ;.4.o.T E L A K ! A.G.m.b.      ",
"                                p.>.1.,.9.O.z.Q ^ M.D.H.v u     ",
"                            u.i.p.4.@.@.8.0.q.0.e.a.S.          ",
"                        &.=.u.i.6.o.g.T E J L Q                 ",
"                    } $.*.]   :.| ..f.T E                       ",
"                d.s.' x k       1 3                             ",
"          g z c j f d                                           ",
"        p i   s p                                               ",
"                                                                "
};
