/* XPM */
static char *_21707606674[] = {
/* columns rows colors chars-per-pixel */
"32 28 140 2 ",
"   c None",
".  c #2C2520",
"X  c #6F0006",
"o  c #720005",
"O  c #700006",
"+  c #710006",
"@  c #720106",
"#  c #730106",
"$  c #750306",
"%  c #750406",
"&  c #770406",
"*  c #780406",
"=  c #7F0805",
"-  c #752E14",
";  c #7E2E13",
":  c #693419",
">  c #6B5223",
",  c #800704",
"<  c #800905",
"1  c #810905",
"2  c #810A05",
"3  c #820A05",
"4  c #830B05",
"5  c #840904",
"6  c #840B05",
"7  c #860D05",
"8  c #8A0E05",
"9  c #8B0F05",
"0  c #8E0E04",
"q  c #8D1005",
"w  c #921104",
"e  c #931304",
"r  c #9B1704",
"t  c #9B1804",
"y  c #9C1904",
"u  c #9D1904",
"i  c #9F1904",
"p  c #9E1A04",
"a  c #9F1A04",
"s  c #A01B04",
"d  c #A31F05",
"f  c #A61F04",
"g  c #A71F04",
"h  c #A91E03",
"j  c #AB1F03",
"k  c #A81F04",
"l  c #84290E",
"z  c #92260B",
"x  c #96260A",
"c  c #823213",
"v  c #863A16",
"b  c #A92004",
"n  c #AB2104",
"m  c #A02C0A",
"M  c #A12D0A",
"N  c #CD2120",
"B  c #D92023",
"V  c #D82223",
"C  c #D82423",
"Z  c #D22D25",
"A  c #D52C24",
"S  c #C53E2A",
"D  c #A45D17",
"F  c #805624",
"G  c #B5522F",
"H  c #856027",
"J  c #A27036",
"K  c #CA4128",
"L  c #C84E28",
"P  c #DC6039",
"I  c #708C39",
"U  c #74943C",
"Y  c #62AE49",
"T  c #61AF4A",
"R  c #63B34B",
"E  c #64B64D",
"W  c #6CB649",
"Q  c #6FB748",
"!  c #6EBF4F",
"~  c #6FBF4F",
"^  c #75B645",
"/  c #7FB742",
"(  c #7EB348",
")  c #AF801F",
"_  c #8C8F2E",
"`  c #959028",
"'  c #9D932A",
"]  c #978E3A",
"[  c #BB842C",
"{  c #AA9330",
"}  c #AB9B31",
"|  c #89A337",
" . c #8EA635",
".. c #81AD3D",
"X. c #80AD3E",
"o. c #8FAF38",
"O. c #97A033",
"+. c #99A731",
"@. c #9CAA32",
"#. c #9BA038",
"$. c #99B136",
"%. c #9FB736",
"&. c #91B73B",
"*. c #B5A927",
"=. c #B7A628",
"-. c #BAAD28",
";. c #B0B62F",
":. c #BFB228",
">. c #B7BC2F",
",. c #BFBA2B",
"<. c #BABB2D",
"1. c #A8B632",
"2. c #A9BB34",
"3. c #C0AD27",
"4. c #C3B527",
"5. c #C4B427",
"6. c #C1B629",
"7. c #C6B728",
"8. c #C2B829",
"9. c #C2BA29",
"0. c #9CC03D",
"q. c #80B642",
"w. c #8CB547",
"e. c #84BF46",
"r. c #CB9C47",
"t. c #DB9D51",
"y. c #CCA352",
"u. c #DDB659",
"i. c #EAB85B",
"p. c #EFBB5C",
"a. c #99C643",
"s. c #92C64B",
"d. c #9ED54D",
"f. c #85C951",
"g. c #A4C455",
"h. c #AAC356",
"j. c #B2CE56",
"k. c #B8CE54",
"l. c #A7D651",
"z. c #AAD350",
/* pixels */
"                                                                ",
"                                                                ",
"                                                                ",
"                                                                ",
"                                                                ",
"                                                                ",
"                                                                ",
"                                                                ",
"                                                                ",
"                                                                ",
"                                                                ",
"                                                                ",
"                                              f.j.              ",
"                                  q.^ W E E ! g.u.y.p.          ",
"                            ;.1.1.&./ W Y Y ! h.i.t.P           ",
"                          6.8.,.>.<.>.2.o.X.e.s.k.r.N           ",
"                      :.6.7.=.' _ |  .@.+.$.0.a.d.z.            ",
"                  *.-.3.7.8.) m z c - : > I U ( w.l.            ",
"              X.O.{ [     ` D b t 0 = o 7 m x v ; H F           ",
"        } #.] J G S       . l b t q < o , n y e 5 & X           ",
"    B A L K Z C               s y 9 < + & b a e < & +           ",
"          B                   b y 9 4 + * b s   < * X           ",
"                              b y     o +       <   X           ",
"                                y     o +       <   +           ",
"                                    7   +             +         ",
"                                    <   +             +         ",
"                                        + +                     ",
"                                          X                     "
};
