/* XPM */
static char *_21707606675[] = {
/* columns rows colors chars-per-pixel */
"32 28 126 2 ",
"   c None",
".  c #292822",
"X  c #6F0B0A",
"o  c #700006",
"O  c #760306",
"+  c #760406",
"@  c #7E0404",
"#  c #7E0805",
"$  c #710909",
"%  c #7A1209",
"&  c #7F1008",
"*  c #7F220E",
"=  c #6F2614",
"-  c #7E2911",
";  c #753718",
":  c #403421",
">  c #7C451A",
",  c #6C5C28",
"<  c #795E28",
"1  c #736028",
"2  c #800805",
"3  c #800905",
"4  c #810A05",
"5  c #8A0E05",
"6  c #8B0F05",
"7  c #861809",
"8  c #801C0C",
"9  c #811E0C",
"0  c #891909",
"q  c #951304",
"w  c #951405",
"e  c #961504",
"r  c #961E07",
"t  c #981805",
"y  c #9E1A04",
"u  c #A01903",
"i  c #A01B04",
"p  c #9E390D",
"a  c #A82606",
"s  c #CE2020",
"d  c #D72423",
"f  c #D92023",
"g  c #D82223",
"h  c #D02F26",
"j  c #D23825",
"k  c #904917",
"l  c #8E5A1E",
"z  c #94521A",
"x  c #A3410F",
"c  c #B45811",
"v  c #99671E",
"b  c #9D6B1F",
"n  c #A56C1A",
"m  c #AA701B",
"M  c #B27219",
"N  c #B35530",
"B  c #8F6020",
"V  c #8C6023",
"C  c #8D6621",
"Z  c #8A7527",
"A  c #827C2D",
"S  c #827D2D",
"D  c #987327",
"F  c #9F7337",
"G  c #C4432B",
"H  c #C84329",
"J  c #C3592A",
"K  c #DC643B",
"L  c #678438",
"P  c #739E3C",
"I  c #73A13D",
"U  c #6C9E40",
"Y  c #6BA743",
"T  c #6DAD44",
"R  c #71A141",
"E  c #7BAF42",
"W  c #63B34B",
"Q  c #65B74C",
"!  c #62B84E",
"~  c #64B84D",
"^  c #6ABA4E",
"/  c #69BC4F",
"(  c #79C350",
")  c #7AC350",
"_  c #86812C",
"`  c #9F8224",
"'  c #959B2D",
"]  c #9E843C",
"[  c #8E9530",
"{  c #92923B",
"}  c #BD892C",
"|  c #AD9025",
" . c #AD952F",
".. c #BE9A21",
"X. c #AA813A",
"o. c #87AA39",
"O. c #81A83C",
"+. c #9BA132",
"@. c #95A43A",
"#. c #8CB23B",
"$. c #8DB93E",
"%. c #9DBB39",
"&. c #9FBB38",
"*. c #9FBC38",
"=. c #B6AB27",
"-. c #BBAE28",
";. c #BCB92C",
":. c #A4AF33",
">. c #A3A835",
",. c #C2AA25",
"<. c #C1AF27",
"1. c #C5B527",
"2. c #C0B328",
"3. c #80AA45",
"4. c #85BC44",
"5. c #DF8F48",
"6. c #C49E50",
"7. c #DDB157",
"8. c #EAA656",
"9. c #F0BC5D",
"0. c #F8BC5E",
"q. c #87C349",
"w. c #A4C64E",
"e. c #C0C358",
"r. c #CCC15A",
"t. c #D3C657",
/* pixels */
"                                                                ",
"                                                                ",
"                                                                ",
"                                                                ",
"                                                                ",
"                                                                ",
"                                                                ",
"                                                                ",
"                                                                ",
"                                                                ",
"                                                                ",
"                                                                ",
"                                                                ",
"                                  5 3 + o X =                   ",
"                                w 6 3 O $ ,                     ",
"                              i w 5 3 O > P   #.T L <           ",
"                              y w 5 3 % _ I O.E 3.] X.          ",
"                              u e 0 4 ; Y W ^ ) e.9.6.7.        ",
"                            a x r k % 1 Q ! / ) r.0.8.K         ",
"                            c M p m 0 ` *.$.4.q.w.t.5.s         ",
"                        2.,...m z Z 8 [ %.&.:.| v D             ",
"                    =.-.<.1.;.b V _ - Y Q R V t @               ",
"                o.+. .}     ' C l S *           #               ",
"          >.@.{ F N G       . :     4                           ",
"      g j J H h d                                               ",
"            g                                                   ",
"                                                                ",
"                                                                "
};
