/* XPM */
static char *_01707606675[] = {
/* columns rows colors chars-per-pixel */
"32 28 154 2 ",
"   c None",
".  c #6F0307",
"X  c #700005",
"o  c #700006",
"O  c #740005",
"+  c #740106",
"@  c #790506",
"#  c #7A0506",
"$  c #700809",
"%  c #720B0A",
"&  c #790A08",
"*  c #7B0F08",
"=  c #71150E",
"-  c #6F2C16",
";  c #723017",
":  c #7E3815",
">  c #72381A",
",  c #6E4821",
"<  c #68692D",
"1  c #696D2D",
"2  c #6A712D",
"3  c #6F7B2D",
"4  c #6B7E34",
"5  c #800604",
"6  c #8F1706",
"7  c #9A1403",
"8  c #9A1503",
"9  c #991604",
"0  c #991704",
"q  c #9A1704",
"w  c #9B1804",
"e  c #9F1904",
"r  c #9F1A04",
"t  c #981F07",
"y  c #A01904",
"u  c #A01A04",
"i  c #A01B04",
"p  c #A41D04",
"a  c #A51E04",
"s  c #A61E04",
"d  c #97280A",
"f  c #962A0B",
"g  c #90290D",
"h  c #AD2203",
"j  c #AB2104",
"k  c #AC2104",
"l  c #B22503",
"z  c #CD1C1E",
"x  c #DA1F22",
"c  c #CF2F26",
"v  c #D82223",
"b  c #D82323",
"n  c #D52B24",
"m  c #D62A24",
"M  c #C83729",
"N  c #8A4C1B",
"B  c #85561F",
"V  c #93541A",
"C  c #A16D1E",
"Z  c #875B21",
"A  c #BC4E2D",
"S  c #856725",
"D  c #BC672E",
"F  c #B27F2F",
"G  c #B26A30",
"H  c #A77A32",
"J  c #C85428",
"K  c #688233",
"L  c #668639",
"P  c #698D38",
"I  c #6C9E3F",
"U  c #7E9637",
"Y  c #74953E",
"T  c #7E9738",
"R  c #76983B",
"E  c #6DAB43",
"W  c #6BAB47",
"Q  c #68AC46",
"!  c #6EAF44",
"~  c #71AC43",
"^  c #7FAB41",
"/  c #6FB446",
"(  c #62B64C",
")  c #63B64C",
"_  c #62B64D",
"`  c #69B64A",
"'  c #68B74B",
"]  c #63B84E",
"[  c #69B84B",
"{  c #6BBD4F",
"}  c #6CBD4F",
"|  c #72B045",
" . c #71B446",
".. c #70B647",
"X. c #77B745",
"o. c #7FB742",
"O. c #78B644",
"+. c #76B947",
"@. c #7BBD48",
"#. c #78C450",
"$. c #79C450",
"%. c #79C751",
"&. c #808732",
"*. c #8F8735",
"=. c #89913A",
"-. c #8D943A",
";. c #9F9B3B",
":. c #87B63F",
">. c #8BB53D",
",. c #89B83F",
"<. c #8CB83E",
"1. c #9CB737",
"2. c #91B93C",
"3. c #98B839",
"4. c #9BB838",
"5. c #9CB838",
"6. c #ABA62A",
"7. c #B8AB27",
"8. c #BDAF27",
"9. c #B5A52A",
"0. c #BEA128",
"q. c #BCB72B",
"w. c #A4B734",
"e. c #A8B431",
"r. c #AFB630",
"t. c #C2AB27",
"y. c #C1B227",
"u. c #C4B527",
"i. c #C5B527",
"p. c #C5B827",
"a. c #C0B82A",
"s. c #81B641",
"d. c #82B247",
"f. c #85B941",
"g. c #88BC43",
"h. c #B5AB4C",
"j. c #C19642",
"k. c #D19E4F",
"l. c #E7964D",
"z. c #E5B158",
"x. c #84C34A",
"c. c #95CA4C",
"v. c #87CD51",
"b. c #88CD51",
"n. c #91CC53",
"m. c #98D853",
"M. c #9BDC55",
"N. c #B5C354",
"B. c #B2C557",
"V. c #BDC458",
"C. c #B1D252",
"Z. c #AAE356",
"A. c #ACE255",
"S. c #EBC25D",
/* pixels */
"                                                                ",
"                                                                ",
"                                                                ",
"                                w                     o         ",
"                            a u q                   o o         ",
"                            a u q                   o o         ",
"                          h a u q               o o o o         ",
"                          k a u q 6           o o o o o         ",
"                        l k a u q : 2         o o o $ $         ",
"                          k s u q B I         o o = *.;.        ",
"                        l k a u t U E     @ O o > =.A.          ",
"                          k s u d U /     @ O - d.M.Z.          ",
"                          k a u d U / < 5 & , Y b.m.            ",
"                          j a u 7 B  .4 * ; W %.b.              ",
"                            a u q N ~ Q < L { %.n.N.h.          ",
"                              e 7 g R [ _ _ } %.V.z.k.          ",
"                              C V S ~ ' _ ] { %.B.S.l.c         ",
"                        y.i.p.a.r.1.<.s.O.+.@.x.c.C.j.z         ",
"                    7.8.y.i.q.w.5.5.3.2.,.f.g.                  ",
"                  6.9.0.t.i.e.>.s.O...' _                       ",
"            :.^ -.H D       3 K P                               ",
"        A j.G A M                                               ",
"      v m m v x                                                 ",
"                                                                ",
"                                                                ",
"                                                                ",
"                                                                ",
"                                                                "
};
