/* XPM */
static char *_11707606674[] = {
/* columns rows colors chars-per-pixel */
"32 28 115 2 ",
"   c None",
".  c #6F0005",
"X  c #6F0006",
"o  c #700006",
"O  c #720006",
"+  c #760306",
"@  c #7A0405",
"#  c #7D0B07",
"$  c #7D0C07",
"%  c #720A09",
"&  c #75130C",
"*  c #7A160A",
"=  c #7F190B",
"-  c #7C1A0B",
";  c #772914",
":  c #7E3816",
">  c #753518",
",  c #783419",
"<  c #723A1C",
"1  c #72451E",
"2  c #7A441B",
"3  c #645E29",
"4  c #685F29",
"5  c #7C5721",
"6  c #830609",
"7  c #860B08",
"8  c #861006",
"9  c #821F0D",
"0  c #A01D05",
"q  c #87230E",
"w  c #872F0E",
"e  c #882C0F",
"r  c #892C0F",
"t  c #962509",
"y  c #982E0B",
"u  c #9C310B",
"i  c #9E320B",
"p  c #94380E",
"a  c #883E15",
"s  c #A82B0C",
"d  c #A1320A",
"f  c #AA3E0C",
"g  c #B53311",
"h  c #C11A1C",
"j  c #D62624",
"k  c #D92023",
"l  c #D82323",
"z  c #CF3026",
"x  c #9F4F12",
"c  c #865C1F",
"v  c #A44610",
"b  c #A84F16",
"n  c #AC5A15",
"m  c #AE5D14",
"M  c #9E6019",
"N  c #AB6115",
"B  c #B26A16",
"V  c #AE7019",
"C  c #AC761D",
"Z  c #AF7E1C",
"A  c #B0771A",
"S  c #BF5F2B",
"D  c #876A25",
"F  c #A7612D",
"G  c #CC4927",
"H  c #C64429",
"J  c #CF5B33",
"K  c #D75735",
"L  c #7A9636",
"P  c #62B74D",
"I  c #63B74D",
"U  c #64B64C",
"Y  c #65B64C",
"T  c #6AB74A",
"R  c #6CB649",
"E  c #6CB849",
"W  c #69BC4F",
"Q  c #6BBC4E",
"!  c #74B646",
"~  c #74B746",
"^  c #7FB140",
"/  c #7DB742",
"(  c #73B847",
")  c #77C34F",
"_  c #75C450",
"`  c #88882E",
"'  c #9C8E29",
"]  c #868E31",
"[  c #8E9D31",
"{  c #8C9D34",
"}  c #8E943D",
"|  c #A28221",
" . c #8FA63C",
".. c #9CAE37",
"X. c #87B43E",
"o. c #90B23A",
"O. c #A5AA2F",
"+. c #A9AA2C",
"@. c #BAB52C",
"#. c #BEBA2C",
"$. c #AAB833",
"%. c #86BC43",
"&. c #CB9E52",
"*. c #DB9A51",
"=. c #CCA049",
"-. c #E8B65A",
";. c #F2B95D",
":. c #93C042",
">. c #99C645",
",. c #92CB53",
"<. c #95CA54",
"1. c #B3C24B",
"2. c #ABD456",
"3. c #DAC45B",
"4. c #E7C15D",
/* pixels */
"                                                                ",
"                                                                ",
"                                                                ",
"                                                                ",
"                                                                ",
"                                                                ",
"                                                                ",
"                                                                ",
"                                                                ",
"                                                                ",
"                                            2.                  ",
"                              ~ R Y I Q ) ,.3.-.&.              ",
"                        a X./ ~ R Y I Q _ <.4.;.*.K             ",
"                      M e ` ^ ~ E T ( %.:.>.1.=.J h             ",
"                  d N Z 8 = 2 ] [ O.@.#.$.o.D q 7 6   O   X     ",
"              m B V i A p @ O * - w | O.[ L 5 9 $ + X X O O     ",
"            ' C b n i y x # O X X X           4 1 ; % O X       ",
"      .. .} F g s 0 t e : > < , & X                             ",
"  k G S H z j   f v c 3                                         ",
"        k                                                       ",
"                                                                ",
"                                                                ",
"                                                                ",
"                                                                ",
"                                                                ",
"                                                                ",
"                                                                ",
"                                                                "
};
