/* XPM */
static char *_01707606674[] = {
/* columns rows colors chars-per-pixel */
"32 28 160 2 ",
"   c None",
".  c #393D26",
"X  c #6F0006",
"o  c #6D0407",
"O  c #6E0407",
"+  c #6D0608",
"@  c #6D0909",
"#  c #6B0E0B",
"$  c #700005",
"%  c #700006",
"&  c #7B160A",
"*  c #7C180B",
"=  c #691A10",
"-  c #6F1D11",
";  c #652213",
":  c #7F3114",
">  c #7F3616",
",  c #384027",
"<  c #654922",
"1  c #675725",
"2  c #755A25",
"3  c #7E5E24",
"4  c #7D6F2A",
"5  c #7D702A",
"6  c #7E722F",
"7  c #7D7D2F",
"8  c #637131",
"9  c #627332",
"0  c #617734",
"q  c #787732",
"w  c #800A05",
"e  c #820A05",
"r  c #8E0F04",
"t  c #8F0F04",
"y  c #8E1005",
"u  c #8E1105",
"i  c #8E1206",
"p  c #8E1306",
"a  c #8E1406",
"s  c #8E1607",
"d  c #80190B",
"f  c #82180A",
"g  c #801C0C",
"h  c #A21A04",
"j  c #A21B04",
"k  c #A21C04",
"l  c #A31C04",
"z  c #9A320D",
"x  c #B32503",
"c  c #B42603",
"v  c #B52603",
"b  c #B52703",
"n  c #B82803",
"m  c #CE1C1F",
"M  c #D92023",
"N  c #D82223",
"B  c #D82323",
"V  c #D22B25",
"C  c #C93A28",
"Z  c #924013",
"A  c #BE532E",
"S  c #BE542C",
"D  c #BB6B2D",
"F  c #AA6633",
"G  c #CC4927",
"H  c #DA5D38",
"J  c #DB703C",
"K  c #5C8D3C",
"L  c #6D8937",
"P  c #738535",
"I  c #738936",
"U  c #7E8938",
"Y  c #67903D",
"T  c #719039",
"R  c #73973B",
"E  c #73A23F",
"W  c #77A43C",
"Q  c #7FA339",
"!  c #609741",
"~  c #64A142",
"^  c #62A445",
"/  c #6EA143",
"(  c #63B64D",
")  c #63B74D",
"_  c #62B74E",
"`  c #64B64C",
"'  c #64B74D",
"]  c #69B148",
"[  c #6AB148",
"{  c #6AB549",
"}  c #68B64A",
"|  c #6AB64A",
" . c #63B94E",
".. c #69B84B",
"X. c #6AB84A",
"o. c #6AB84D",
"O. c #6ABC4E",
"+. c #6BBC4E",
"@. c #76B142",
"#. c #70B647",
"$. c #72B647",
"%. c #72B747",
"&. c #72B847",
"*. c #7EB843",
"=. c #74C14F",
"-. c #75C24F",
";. c #75C34F",
":. c #75C250",
">. c #75C350",
",. c #76C651",
"<. c #93833A",
"1. c #A98A23",
"2. c #AF9F2D",
"3. c #BC962B",
"4. c #9FA22F",
"5. c #87A03F",
"6. c #8DAE3D",
"7. c #91A834",
"8. c #96AD36",
"9. c #87B83F",
"0. c #8DB83D",
"q. c #8DB93D",
"w. c #99B036",
"e. c #97B739",
"r. c #92B93C",
"t. c #90BA3D",
"y. c #A2A52F",
"u. c #B6A227",
"i. c #B7AA27",
"p. c #BCAF27",
"a. c #B2B82F",
"s. c #BDB92B",
"d. c #ADB631",
"f. c #C1B127",
"g. c #C1B227",
"h. c #C3B427",
"j. c #C4B527",
"k. c #C3B729",
"l. c #80B842",
"z. c #80B943",
"x. c #84B841",
"c. c #87BB42",
"v. c #82BC45",
"b. c #DE9B51",
"n. c #CEA353",
"m. c #DBB257",
"M. c #EDB25B",
"N. c #EABF5D",
"B. c #89C146",
"V. c #82C14D",
"C. c #93C848",
"Z. c #9FD24D",
"A. c #82CB51",
"S. c #89CB52",
"D. c #8DCA52",
"F. c #94C853",
"G. c #94D553",
"H. c #CEC759",
"J. c #C1CA58",
"K. c #DFC85B",
/* pixels */
"                                                                ",
"                      n n                                       ",
"                        n n                                     ",
"                      n n v k                     %   %         ",
"                        n c h r e             %   % %           ",
"                      n n v k p & 1         % % % % %           ",
"                          v k r * L ~       % % % %             ",
"                        n v h r > T ]     % % X # @             ",
"                        n v k p 4 %.{ K   % % - U q             ",
"                        n v k p 3 %.X.0 o o = q G.              ",
"                          v k a 7 &.X.8 o < / V.                ",
"                          v k a 5 %.X.9 ; Y ,.A.                ",
"                          c k r : E X.^ ! o.;.                  ",
"                          x k r g R X.'  .O.;.                  ",
"                            h r d I { ' ( O.;.F.H.m.n.          ",
"                            z p e 2 [ '  .O.;.F.N.M.b.H         ",
"                          a.4.Z d P { (  .O.,.S.J.K.J m         ",
"                      f.j.k.s.u.1.w.q.x.l.v.B.C.Z.              ",
"                  i.p.f.h.d.e.r.q.q.9.l.*.c.                    ",
"              7.4.u.3.    8.Q W @.#.{                           ",
"          x.5.<.F A         . ,                                 ",
"    M G D A C B                                                 ",
"    B     M                                                     ",
"                                                                ",
"                                                                ",
"                                                                ",
"                                                                ",
"                                                                "
};
