/* XPM */
static char *_11707606675[] = {
/* columns rows colors chars-per-pixel */
"32 28 154 2 ",
"   c None",
".  c #451917",
"X  c #6D0106",
"o  c #6F0006",
"O  c #710005",
"+  c #700006",
"@  c #710006",
"#  c #730206",
"$  c #750306",
"%  c #770306",
"&  c #770406",
"*  c #750707",
"=  c #7D0706",
"-  c #7E0805",
";  c #6E170E",
":  c #71120C",
">  c #691F11",
",  c #662E18",
"<  c #792710",
"1  c #7F4D19",
"2  c #614B23",
"3  c #6D6B2B",
"4  c #786729",
"5  c #767E2F",
"6  c #677F34",
"7  c #810805",
"8  c #800905",
"9  c #810905",
"0  c #810A05",
"q  c #850C05",
"w  c #870C05",
"e  c #8A0F05",
"r  c #8B0F05",
"t  c #841007",
"y  c #841107",
"u  c #891406",
"i  c #8D1506",
"p  c #901105",
"a  c #911205",
"s  c #951504",
"d  c #951405",
"f  c #9A1603",
"g  c #9A1704",
"h  c #9E1A04",
"j  c #9F1A04",
"k  c #A41B03",
"l  c #A21C04",
"z  c #9A2007",
"x  c #8D3612",
"c  c #933410",
"v  c #AE2203",
"b  c #AA2405",
"n  c #DB1F22",
"m  c #D72423",
"M  c #D82323",
"N  c #D62923",
"B  c #D32E25",
"V  c #CE3125",
"C  c #CF3C26",
"Z  c #C43C2A",
"A  c #B5542F",
"S  c #816426",
"D  c #8E6820",
"F  c #8D7A2F",
"G  c #BF712C",
"H  c #A77334",
"J  c #AE7F30",
"K  c #D54830",
"L  c #63973F",
"P  c #61A245",
"I  c #6CA642",
"U  c #61AC49",
"Y  c #79A643",
"T  c #62B14B",
"R  c #62B34B",
"E  c #67B64A",
"W  c #67B64B",
"Q  c #60B44C",
"!  c #62B64D",
"~  c #6DB749",
"^  c #6FB648",
"/  c #65B84E",
"(  c #69B84B",
")  c #68B84D",
"_  c #6DB94D",
"`  c #6DBF4F",
"'  c #6EBE4F",
"]  c #70B647",
"[  c #76B645",
"{  c #7BB643",
"}  c #7FB742",
"|  c #78B644",
" . c #79B744",
".. c #7CB843",
"X. c #7BC750",
"o. c #7AC751",
"O. c #7BC751",
"+. c #7CC751",
"@. c #968A35",
"#. c #969536",
"$. c #B18B2F",
"%. c #A58C34",
"&. c #81A93E",
"*. c #84B53F",
"=. c #8DB73D",
"-. c #95B83A",
";. c #92BD3F",
":. c #9CBD3C",
">. c #ABA428",
",. c #BCAE27",
"<. c #B2AA28",
"1. c #BAA928",
"2. c #B5B92F",
"3. c #B7BB2F",
"4. c #A2B634",
"5. c #A5BA35",
"6. c #ABB932",
"7. c #B0B931",
"8. c #B2BA30",
"9. c #B3BA30",
"0. c #C1A925",
"q. c #C1A927",
"w. c #C0B227",
"e. c #C4B427",
"r. c #C4B527",
"t. c #C5B527",
"y. c #C7B727",
"u. c #C9B927",
"i. c #C4B628",
"p. c #C2B829",
"a. c #C1BA2A",
"s. c #83B640",
"d. c #88B849",
"f. c #C99B4D",
"g. c #E39A4F",
"h. c #D0BD51",
"j. c #E7A854",
"k. c #E6BC5B",
"l. c #95C344",
"z. c #99C342",
"x. c #9CCA46",
"c. c #8CD153",
"v. c #8ED353",
"b. c #90D153",
"n. c #9FDC54",
"m. c #A0CB48",
"M. c #A4CB55",
"N. c #A7CA56",
"B. c #A0D953",
"V. c #BCD151",
"C. c #B3EB58",
"Z. c #C0CF58",
"A. c #DAC659",
"S. c #EBC05D",
/* pixels */
"                                                                ",
"                                                                ",
"                                                                ",
"                                                                ",
"                                                                ",
"                                                                ",
"                                                                ",
"                                                                ",
"                                                                ",
"                                            b.Z.A.              ",
"                              | ~ E ! / ' +.M.k.f.g.            ",
"                          u.p.6.-.s.~ ) ' o.N.S.j.K             ",
"                      t.u.p.3.2.8.9.9.5.:.l.x.V.h.V             ",
"                  ,.,.t.i.4.*.| [  .s.=.=.l.x.                  ",
"              >.<.1.q.t.q.D 5 | ] E ! T o.o.c.                  ",
"          ..&.#.J G     1 u < 3 I ( T U _ +.v.n.                ",
"      $.%.H A Z         . t 9 : L L L 4 S Y d.B.C.              ",
"  M N C B m n           ; i 9 * ; , 2 h b c x F @.              ",
"                          r 8 & + o X   v k f i y 8             ",
"                          e 8 & + + o     l g a e =             ",
"                          r 8 & + +           a q - $           ",
"                      j s r 8 & +                 8 + + +       ",
"                      l s r 8 &                                 ",
"                                                                ",
"                                                                ",
"                                                                ",
"                                                                ",
"                                                                "
};
